<svg xmlns="http://www.w3.org/2000/svg" viewBox="0 0 1515.7 250">
  <defs>
    <style>
      .cls-1 {
        fill: #e34234;
      }

      .cls-2 {
        fill: #fff;
      }
    </style>
  </defs>
  <g id="Layer_1" data-name="Layer 1">
    <g>
      <polygon class="cls-1" points="238.7 0.4 203.6 0.4 196.6 0.4 153 0.4 37.4 0.4 0 0.4 0 36 0 122.9 37.4 96.3 37.4 36 153 36 0 145.1 0 165 119.2 250 238.7 164.8 238.7 56.5 130.2 133.9 213.1 133.9 118.6 201.3 56.5 156.9 238.7 26.9 238.7 0.4"/>
      <g>
        <path class="cls-2" d="M330,245.7V204L444.1,49.3H330V4H511.5V45.3L397.4,200.4H514.1v45.3Z"/>
        <path class="cls-2" d="M954.9,125c0-72.8,53.3-125,126.4-125,72.8,0,126.1,52.2,126.1,125s-53.3,125-126.1,125C1008.2,250,954.9,197.8,954.9,125Zm199.7,0c0-45.3-28.6-79.3-73.2-79.3-44.9,0-73.5,34.1-73.5,79.3,0,44.9,28.6,79.3,73.5,79.3C1126,204.3,1154.6,169.9,1154.6,125Z"/>
        <path class="cls-1" d="M1267.5,125c0-76.4,58-125,129-125,50,0,81.5,25.4,99.6,54l-42.4,23.2c-11.2-17-31.9-31.5-57.2-31.5-44.2,0-76.1,33.7-76.1,79.3s31.9,79.3,76.1,79.3c34.4,0,55.1-22.1,62.7-47.5h-75.4V111.5h131.9c0,86.2-46.7,138.4-123.9,138.4C1325.5,250,1267.5,201.1,1267.5,125Z"/>
        <polygon class="cls-2" points="540.4 100 540.4 245.7 711.4 245.7 711.4 200.4 591.9 200.4 591.9 145.3 708.9 145.3 708.9 100 633.7 100 591.9 100 540.4 100"/>
        <polygon class="cls-1" points="633.7 49.3 711.4 49.3 711.4 4 540.4 4 540.4 49.3 591.9 49.3 633.7 49.3"/>
        <path class="cls-2" d="M885,153.6c26.1-6.2,53.3-29.3,53.3-71.7C938.2,37,907.1,4,856.7,4h-113V245.7h51.4V49.3h54.3c20.3,0,35.9,12.3,35.9,32.2,0,20.7-15.6,33-35.9,33H807.7l25,45.3,47.5,85.9h59.4Z"/>
      </g>
    </g>
  </g>
</svg>